<?xml version="1.0" encoding="UTF-8"?>
<svg width="128px" height="37px" viewBox="0 0 128 37" version="1.1" xmlns="http://www.w3.org/2000/svg" xmlns:xlink="http://www.w3.org/1999/xlink">
    <!-- Generator: Sketch 50.1 (55044) - http://www.bohemiancoding.com/sketch -->
    <title>Slack_RGB</title>
    <desc>Created with Sketch.</desc>
    <defs></defs>
    <g id="Page-1" stroke="none" stroke-width="1" fill="none" fill-rule="evenodd">
        <g id="Price-to-Performance-V3" transform="translate(-601.000000, -996.000000)" fill-rule="nonzero">
            <g id="companies" transform="translate(250.000000, 960.000000)">
                <g id="Group-5" transform="translate(0.000000, 34.000000)">
                    <g id="Slack_RGB" transform="translate(351.000000, 2.000000)">
                        <g id="Group" transform="translate(0.000000, 1.165354)">
                            <path d="M23.10875,2.35984252 C22.5585417,0.699212598 20.7920833,-0.203937008 19.1414583,0.320472441 C17.4908333,0.874015748 16.593125,2.6511811 17.114375,4.31181102 L25.2516667,29.4834646 C25.801875,31.0275591 27.4814583,31.9015748 29.0741667,31.4354331 C30.75375,30.9401575 31.7672917,29.1629921 31.2170833,27.5314961 C31.2170833,27.4732283 23.10875,2.35984252 23.10875,2.35984252 Z" id="Shape" fill="#ECB32D"></path>
                            <path d="M10.511875,6.46771654 C9.96166667,4.80708661 8.19520833,3.90393701 6.54458333,4.42834646 C4.89395833,4.98188976 3.99625,6.75905512 4.5175,8.41968504 L12.6547917,33.5913386 C13.205,35.1354331 14.8845833,36.0094488 16.4772917,35.5433071 C18.156875,35.0480315 19.1704167,33.2708661 18.6202083,31.6393701 C18.6202083,31.5811024 10.511875,6.46771654 10.511875,6.46771654 Z" id="Shape" fill="#63C1A0"></path>
                            <path d="M33.36,23.1905512 C35.010625,22.6370079 35.9083333,20.8598425 35.3870833,19.1992126 C34.836875,17.5385827 33.0704167,16.6354331 31.4197917,17.1598425 L6.37083333,25.3755906 C4.83604167,25.9291339 3.96729167,27.6188976 4.430625,29.2212598 C4.92291667,30.9110236 6.689375,31.9307087 8.31104167,31.3771654 C8.36895833,31.3771654 33.36,23.1905512 33.36,23.1905512 Z" id="Shape" fill="#E01A59"></path>
                            <path d="M11.5833333,30.3283465 C13.205,29.803937 15.3189583,29.1047244 17.5777083,28.376378 C17.0564583,26.7448819 16.3614583,24.6181102 15.6375,22.3456693 L9.643125,24.2976378 L11.5833333,30.3283465 Z" id="Shape" fill="#331433"></path>
                            <path d="M24.2091667,26.1913386 C26.4679167,25.4629921 28.581875,24.7637795 30.2035417,24.2393701 C29.6822917,22.607874 28.9872917,20.4811024 28.2633333,18.2086614 L22.2689583,20.1606299 L24.2091667,26.1913386 Z" id="Shape" fill="#D62027"></path>
                            <path d="M29.2479167,10.5173228 C30.8985417,9.96377953 31.79625,8.18661417 31.275,6.52598425 C30.7247917,4.86535433 28.9583333,3.96220472 27.3077083,4.48661417 L2.28770833,12.6732283 C0.752916667,13.2267717 -0.115833333,14.9165354 0.3475,16.5188976 C0.839791667,18.2086614 2.60625,19.2283465 4.22791667,18.6748031 C4.28583333,18.6748031 29.2479167,10.5173228 29.2479167,10.5173228 Z" id="Shape" fill="#89D3DF"></path>
                            <path d="M7.50020833,17.6259843 C9.121875,17.1015748 11.2358333,16.4023622 13.4945833,15.6740157 C12.770625,13.4015748 12.075625,11.2748031 11.554375,9.64330709 L5.56,11.5952756 L7.50020833,17.6259843 Z" id="Shape" fill="#258B74"></path>
                            <path d="M20.0970833,13.5181102 C22.3558333,12.7897638 24.4697917,12.0905512 26.0914583,11.5661417 C25.3675,9.29370079 24.6725,7.16692913 24.15125,5.53543307 L18.156875,7.48740157 L20.0970833,13.5181102 Z" id="Shape" fill="#819C3C"></path>
                        </g>
                        <path d="M58.7275,10.1385827 C59.8279167,10.6338583 59.9147917,10.9834646 59.0460417,12.6440945 C58.1483333,14.3338583 57.945625,14.4503937 56.8452083,14.0133858 C55.4841667,13.4307087 53.7177083,12.9937008 52.5883333,12.9937008 C50.735,12.9937008 49.51875,13.6637795 49.51875,14.6834646 C49.51875,18.0338583 60.1175,16.2275591 60.1175,23.3362205 C60.1175,26.919685 57.0479167,29.3086614 52.4725,29.3086614 C50.0689583,29.3086614 47.08625,28.4929134 45.0302083,27.4440945 C44.0166667,26.919685 43.9297917,26.6283465 44.8275,24.9094488 C45.5804167,23.423622 45.8410417,23.2488189 46.9414583,23.7149606 C48.6789583,24.4724409 50.90875,25.084252 52.385625,25.084252 C54.0652083,25.084252 55.1945833,24.3850394 55.1945833,23.3944882 C55.1945833,20.1606299 44.393125,21.7047244 44.393125,14.8 C44.393125,11.1291339 47.43375,8.68188976 51.9802083,8.68188976 C54.1810417,8.65275591 56.8741667,9.29370079 58.7275,10.1385827 Z" id="Shape" fill="#2D333A"></path>
                        <path d="M67.2991667,1.68976378 L67.2991667,28.2598425 C67.2991667,28.6677165 66.8647917,29.0755906 66.285625,29.0755906 L63.505625,29.0755906 C62.8975,29.0755906 62.4920833,28.6385827 62.4920833,28.2598425 L62.4920833,1.68976378 C62.4920833,0.378740157 62.8685417,0.262204724 64.895625,0.262204724 C67.2122917,0.233070866 67.2991667,0.407874016 67.2991667,1.68976378 Z" id="Shape" fill="#2D333A"></path>
                        <path d="M87.04875,16.6062992 L87.04875,28.0559055 C87.04875,28.6677165 86.614375,29.0755906 86.0352083,29.0755906 L83.2841667,29.0755906 C82.6470833,29.0755906 82.2127083,28.6094488 82.270625,27.9685039 L82.2995833,26.7448819 C80.8227083,28.4055118 78.6797917,29.2795276 76.536875,29.2795276 C72.3958333,29.2795276 69.6158333,26.8614173 69.6158333,23.2779528 C69.6158333,19.4614173 72.7433333,16.8685039 77.4635417,16.8685039 C79.2589583,16.8685039 80.880625,17.1889764 82.2127083,17.7425197 L82.2127083,16.4314961 C82.2127083,14.3338583 80.5620833,13.0811024 77.753125,13.0811024 C76.45,13.0811024 74.8283333,13.6055118 73.5541667,14.3629921 C72.5695833,14.9165354 72.3379167,14.8874016 71.2664583,13.2850394 C70.2239583,11.6826772 70.2529167,11.3913386 71.2664583,10.7212598 C73.2066667,9.46850394 75.8129167,8.65275591 78.2164583,8.65275591 C83.6316667,8.65275591 87.04875,11.5952756 87.04875,16.6062992 Z M74.2491667,23.2488189 C74.2491667,24.6181102 75.4075,25.5212598 77.1160417,25.5212598 C79.2010417,25.5212598 81.1122917,24.5015748 82.2127083,22.7826772 L82.2127083,21.0055118 C81.1122917,20.5685039 79.75125,20.3354331 78.5639583,20.3354331 C75.9577083,20.3354331 74.2491667,21.5590551 74.2491667,23.2488189 Z" id="Shape" fill="#2D333A"></path>
                        <path d="M105.871667,10.1677165 C106.885208,10.7503937 106.914167,11.0708661 105.81375,12.7897638 C104.77125,14.4212598 104.5975,14.5086614 103.468125,13.9551181 C102.628333,13.5181102 101.267292,13.1393701 100.166875,13.1393701 C96.691875,13.1393701 94.3752083,15.4409449 94.3752083,18.9370079 C94.3752083,22.5496063 96.691875,24.9968504 100.166875,24.9968504 C101.383125,24.9968504 102.888958,24.5307087 103.873542,23.9771654 C104.887083,23.3944882 105.089792,23.423622 106.16125,24.9968504 C107.116875,26.4535433 107.116875,26.8031496 106.248125,27.4149606 C104.684375,28.4929134 102.251875,29.3086614 100.08,29.3086614 C93.65125,29.3086614 89.3364583,25.1716535 89.3364583,18.9370079 C89.3364583,12.7606299 93.65125,8.65275591 100.137917,8.65275591 C102.107083,8.65275591 104.42375,9.32283465 105.871667,10.1677165 Z" id="Shape" fill="#2D333A"></path>
                        <path d="M126.895417,26.5700787 C127.70625,27.5897638 127.387708,27.9685039 125.360625,28.6968504 C123.304583,29.4543307 123.015,29.396063 122.291042,28.4637795 L116.528333,20.7433071 L113.951042,23.2488189 L113.951042,28.2598425 C113.951042,28.6677165 113.516667,29.0755906 112.9375,29.0755906 L110.1575,29.0755906 C109.549375,29.0755906 109.143958,28.6385827 109.143958,28.2598425 L109.143958,1.68976378 C109.143958,0.378740157 109.520417,0.262204724 111.5475,0.262204724 C113.893125,0.262204724 113.951042,0.437007874 113.951042,1.68976378 L113.951042,16.7811024 L121.827708,9.17716535 C122.696458,8.36141732 123.18875,8.41968504 124.723542,9.43937008 C126.432083,10.5464567 126.547917,10.8669291 125.737083,11.6535433 L119.8875,17.4220472 L126.895417,26.5700787 Z" id="Shape" fill="#2D333A"></path>
                    </g>
                </g>
            </g>
        </g>
    </g>
</svg>