<?xml version="1.0" encoding="UTF-8"?>
<svg width="95px" height="37px" viewBox="0 0 95 37" version="1.1" xmlns="http://www.w3.org/2000/svg" xmlns:xlink="http://www.w3.org/1999/xlink">
    <!-- Generator: Sketch 50.1 (55044) - http://www.bohemiancoding.com/sketch -->
    <title>Gitlab_wm_no_bg</title>
    <desc>Created with Sketch.</desc>
    <defs></defs>
    <g id="Page-1" stroke="none" stroke-width="1" fill="none" fill-rule="evenodd">
        <g id="Price-to-Performance-V3" transform="translate(-448.000000, -998.000000)" fill-rule="nonzero">
            <g id="companies" transform="translate(250.000000, 960.000000)">
                <g id="Group-5" transform="translate(0.000000, 34.000000)">
                    <g id="Gitlab_wm_no_bg" transform="translate(198.000000, 0.000000)">
                        <g id="g10" transform="translate(49.000000, 20.946951) scale(-1, 1) rotate(-180.000000) translate(-49.000000, -20.946951) translate(0.000000, 0.946951)">
                            <g id="g12" transform="translate(69.413264, 11.954909)" fill="#8C929D">
                                <polygon id="path14" points="1.78585854 12.9433689 0.065866665 12.9433689 0.0713292912 0.0142164871 7.02945437 0.0142164871 7.02945437 1.61304082 1.79132116 1.61304082"></polygon>
                            </g>
                            <g id="g16" transform="translate(0.000000, -0.000000)">
                                <g id="g18-Clipped" transform="translate(-0.000000, -0.000000)">
                                    <g transform="translate(-0.000000, -0.000000)" id="g18">
                                        <g transform="translate(0.236364, 0.238710)">
                                            <g id="Group" transform="translate(0.052525, 0.053046)">
                                                <g id="g24" transform="translate(77.001556, 11.401124)" fill="#8C929D">
                                                    <path d="M5.77777763,2.5462365 C5.34780593,2.09226375 4.62463827,1.63818491 3.64735345,1.63818491 C2.33779388,1.63818491 1.81012521,2.28959707 1.81012521,3.13844867 C1.81012521,4.42143358 2.68960802,5.03337909 4.56602009,5.03337909 C4.91783422,5.03337909 5.48458168,4.99391242 5.77777763,4.93471242 L5.77777763,2.5462365 Z M3.99916758,10.3827037 C2.61018983,10.3827037 1.33624239,9.88544492 0.342149487,9.05770583 L0.950076747,7.99422772 C1.65370501,8.40873386 2.51375347,8.823346 3.74505041,8.823346 C5.15230694,8.823346 5.77777763,8.09289438 5.77777763,6.8691095 L5.77777763,6.23743067 C5.50412108,6.29663067 4.93737361,6.33620343 4.58555948,6.33620343 C1.57554743,6.33620343 0.0510545442,5.27028517 0.0510545442,3.03967591 C0.0510545442,1.04607882 1.26281209,0.0393605725 3.10004033,0.0393605725 C4.3376403,0.0393605725 5.52366046,0.611839411 5.93409278,1.53951824 L6.24682813,0.27626666 L7.45869072,0.27626666 L7.45869072,6.88884284 C7.45869072,8.98121266 6.55956347,10.3827037 3.99916758,10.3827037 Z" id="path26"></path>
                                                </g>
                                                <g id="g28" transform="translate(86.648302, 11.388754)" fill="#8C929D">
                                                    <path d="M3.36161608,1.59139781 C2.71660599,1.59139781 2.14975349,1.67033114 1.71978178,1.86777056 L1.71978178,7.22696183 L1.71978178,7.8486679 C2.30617368,8.34221343 3.02934134,8.6975195 3.94800798,8.6975195 C5.60927663,8.6975195 6.25428671,7.51320125 6.25428671,5.5984314 C6.25428671,2.87448881 5.21838371,1.59139781 3.36161608,1.59139781 M4.08446858,10.3951166 C2.54726459,10.3951166 1.71978178,9.3389589 1.71978178,9.3389589 L1.71978178,11.006956 L1.71431915,13.2177259 L0.93883634,13.2177259 L0.0335111103,13.2177259 L0.0389737364,0.604412888 C0.879377759,0.249106804 2.03251712,0.0517734754 3.2834585,0.0517734754 C6.48886448,0.0517734754 8.03289673,2.12430389 8.03289673,5.69709807 C8.03289673,8.51981343 6.6057857,10.3951166 4.08446858,10.3951166" id="path30"></path>
                                                </g>
                                                <g id="g32" transform="translate(46.015440, 11.428687)" fill="#8C929D">
                                                    <path d="M6.19797964,11.7763438 C7.72247253,11.7763438 8.69975734,11.263171 9.34476747,10.7498922 L10.0839028,12.042956 C9.07646842,12.9351997 7.72142203,13.4147408 6.27613722,13.4147408 C2.62122014,13.4147408 0.0608242409,11.1643983 0.0608242409,6.62445862 C0.0608242409,1.8672401 2.82302215,0.0117763438 5.98294126,0.0117763438 C7.56615739,0.0117763438 8.91479578,0.386815761 9.79427855,0.761855178 L9.75824625,5.84467369 L9.75824625,6.44431238 L9.75824625,7.44360412 L5.06742613,7.44360412 L5.06742613,5.84467369 L8.0577937,5.84467369 L8.09382608,1.98574619 C7.70293314,1.78830676 7.01884427,1.63044011 6.10028267,1.63044011 C3.55942617,1.63044011 1.85897369,3.24464795 1.85897369,6.64419194 C1.85897369,10.09848 3.61804436,11.7763438 6.19797964,11.7763438" id="path34"></path>
                                                </g>
                                                <g id="g36" transform="translate(62.602410, 11.424443)" fill="#8C929D">
                                                    <path d="M1.70707066,13.1820785 L0.0261575734,13.1820785 L0.0316201994,11.0107753 L0.0316201994,10.1224571 L0.0316201994,9.60472234 L0.0316201994,8.70123279 L0.0316201994,3.52961424 L0.0316201994,3.50988091 C0.0316201994,1.41751107 0.930747448,0.016020069 3.49114334,0.016020069 C3.84484839,0.016020069 4.19098979,0.0484845844 4.52704635,0.110124726 L4.52704635,1.63457773 C4.28374939,1.59691465 4.02406455,1.57548383 3.74526051,1.57548383 C2.33800398,1.57548383 1.71253329,2.30582933 1.71253329,3.52961424 L1.71253329,8.70123279 L4.52704635,8.70123279 L4.52704635,10.1224571 L1.71253329,10.1224571 L1.70707066,13.1820785 Z" id="path38"></path>
                                                </g>
                                                <polygon id="path40" fill="#8C929D" points="58.3634327 11.6773588 60.0443458 11.6773588 60.0443458 21.5469959 58.3634327 21.5469959"></polygon>
                                                <polygon id="path42" fill="#8C929D" points="58.3634327 22.9089141 60.0443458 22.9089141 60.0443458 24.6065112 58.3634327 24.6065112"></polygon>
                                                <g id="g44" transform="translate(0.041915, 0.061661)" fill="#FC6D26">
                                                    <path d="M38.7636354,15.4896054 L36.5923466,22.2382991 L32.2891628,35.6137855 C32.0678214,36.3019059 31.103773,36.3019059 30.8823265,35.6137855 L26.5790377,22.2382991 L12.2895431,22.2382991 L7.98614928,35.6137855 C7.76480789,36.3019059 6.80075943,36.3019059 6.57931297,35.6137855 L2.27612924,22.2382991 L0.104945452,15.4896054 C-0.0931797959,14.8740527 0.123854542,14.1997244 0.642278772,13.8192742 L19.4342379,0.0306609312 L38.2263021,13.8192742 C38.7447263,14.1997244 38.9616556,14.8740527 38.7636354,15.4896054" id="path46"></path>
                                                </g>
                                                <g id="g48" transform="translate(12.306498, 0.092322)" fill="#E24329">
                                                    <polygon id="path50" points="7.16969679 0 7.16969679 0 14.3144966 22.2076382 0.0248969673 22.2076382"></polygon>
                                                </g>
                                                <g id="g56" transform="translate(2.247913, 0.092365)" fill="#FC6D26">
                                                    <polygon id="path58" points="17.2282824 0 10.0834825 22.2075321 0.0701737356 22.2075321"></polygon>
                                                </g>
                                                <g id="g64" transform="translate(0.006975, 0.020359)" fill="#FCA326">
                                                    <path d="M2.31111105,22.2795693 L0.139822219,15.5308756 C-0.0581979783,14.915323 0.158731309,14.2409946 0.67726059,13.8606505 L19.4692197,0.0720372742 L2.31111105,22.2795693 Z" id="path66"></path>
                                                </g>
                                                <g id="g72" transform="translate(2.318086, 22.299907)" fill="#E24329">
                                                    <path d="M0,0 L10.0133089,0 L5.71002006,13.3754864 C5.4885736,14.0637129 4.52452514,14.0637129 4.30318373,13.3754864 L0,0 Z" id="path74"></path>
                                                </g>
                                                <g id="g76" transform="translate(19.476195, 0.092365)" fill="#FC6D26">
                                                    <polygon id="path78" points="0 0 7.14479982 22.2075321 17.1581087 22.2075321"></polygon>
                                                </g>
                                                <g id="g80" transform="translate(19.406011, 0.020359)" fill="#FCA326">
                                                    <path d="M17.2282824,22.2795693 L19.3995712,15.5308756 C19.5975914,14.915323 19.3806621,14.2409946 18.8621329,13.8606505 L0.0701737356,0.0720372742 L17.2282824,22.2795693 Z" id="path82"></path>
                                                </g>
                                                <g id="g84" transform="translate(26.549445, 22.299907)" fill="#E24329">
                                                    <path d="M10.0848482,0 L0.0715393921,0 L4.37482818,13.3754864 C4.59627463,14.0637129 5.5603231,14.0637129 5.7816645,13.3754864 L10.0848482,0 Z" id="path86"></path>
                                                </g>
                                            </g>
                                        </g>
                                    </g>
                                </g>
                            </g>
                        </g>
                    </g>
                </g>
            </g>
        </g>
    </g>
</svg>