<?xml version="1.0" encoding="UTF-8"?>
<svg width="156px" height="37px" viewBox="0 0 156 37" version="1.1" xmlns="http://www.w3.org/2000/svg" xmlns:xlink="http://www.w3.org/1999/xlink">
    <!-- Generator: Sketch 50.1 (55044) - http://www.bohemiancoding.com/sketch -->
    <title>HashiCorp_PrimaryLogo_Black</title>
    <desc>Created with Sketch.</desc>
    <defs></defs>
    <g id="Page-1" stroke="none" stroke-width="1" fill="none" fill-rule="evenodd">
        <g id="Price-to-Performance-V3" transform="translate(-783.000000, -996.000000)" fill="#0A0B09">
            <g id="companies" transform="translate(250.000000, 960.000000)">
                <g id="Group-5" transform="translate(0.000000, 34.000000)">
                    <g id="HashiCorp_PrimaryLogo_Black" transform="translate(533.000000, 2.000000)">
                        <polyline id="Fill-1" points="53.070032 28.7878878 53.070032 20.3537755 45.7320384 20.3537755 45.7320384 28.7878878 41.9886751 28.7878878 41.9886751 8.79807143 45.7320384 8.79807143 45.7320384 17.0222653 53.070032 17.0222653 53.070032 8.79807143 56.8130216 8.79807143 56.8130216 28.7878878 53.070032 28.7878878"></polyline>
                        <path d="M66.8846383,23.265449 L64.2108074,23.265449 C63.022438,23.265449 62.6958233,23.5954286 62.6958233,24.7061837 C62.6958233,25.7267041 63.022438,26.1767449 64.1513889,26.1767449 C65.2209213,26.1767449 66.2011391,25.8165612 66.8846383,25.426551 L66.8846383,23.265449 Z M70.5091647,28.7878878 L67.5382414,28.7878878 L67.2710452,27.7975714 C65.9638389,28.6682041 64.4189588,29.0880408 62.9630196,29.0880408 C60.318711,29.0880408 59.1901339,27.2576735 59.1901339,24.7360102 C59.1901339,21.7646837 60.4678177,20.624102 63.4088449,20.624102 L66.8846383,20.624102 L66.8846383,19.0935102 C66.8846383,17.4726837 66.4388129,16.9022041 64.1214928,16.9022041 C62.8146603,16.9022041 61.3886171,17.0822959 60.111307,17.3522449 L59.6654816,14.5610102 C61.0317326,14.1407959 63.022438,13.8708469 64.6267366,13.8708469 C69.1724361,13.8708469 70.5091647,15.4916735 70.5091647,19.1535408 L70.5091647,28.7878878 Z" id="Fill-2"></path>
                        <path d="M77.5205436,29.0880408 C75.9756635,29.0880408 73.8661211,28.7278571 72.5293925,28.2479898 L73.0346363,25.4563776 C74.2521543,25.8165612 75.8564528,26.0868878 77.3422882,26.0868878 C78.9465867,26.0868878 79.1842606,25.7267041 79.1842606,24.6163265 C79.1842606,23.7158673 79.0056315,23.265449 76.658789,22.6953469 C73.1235771,21.8247143 72.7076479,20.9242551 72.7076479,18.1031939 C72.7076479,15.1616939 73.9853317,13.8708469 78.1143545,13.8708469 C79.4514568,13.8708469 81.2041147,14.0509388 82.4519025,14.3809184 L82.0957654,17.2925918 C80.9963369,17.0822959 79.2436791,16.8723776 78.1143545,16.8723776 C76.539952,16.8723776 76.2727558,17.2325612 76.2727558,18.1330204 C76.2727558,19.3034286 76.3616966,19.3936633 78.322506,19.9037347 C82.3629616,20.9842857 82.7493685,21.5245612 82.7493685,24.5260918 C82.7493685,27.3475306 81.8876139,29.0880408 77.5205436,29.0880408" id="Fill-3"></path>
                        <path d="M93.5332594,28.7878878 L93.5332594,18.5830612 C93.5332594,17.8030408 93.2066447,17.4122755 92.3747862,17.4122755 C91.4835092,17.4122755 89.9091067,17.9529286 88.6019005,18.6430918 L88.6019005,28.7878878 L84.9773741,28.7878878 L84.9773741,8.19814286 L88.6019005,7.68769388 L88.6019005,15.2813776 C90.206199,14.440949 92.3448901,13.8708469 93.8897702,13.8708469 C96.2964049,13.8708469 97.1577858,15.5819082 97.1577858,18.193051 L97.1577858,28.7878878 L93.5332594,28.7878878" id="Fill-4"></path>
                        <path d="M99.8319904,28.7882653 L103.456143,28.7882653 L103.456143,14.171 L99.8319904,14.171 L99.8319904,28.7882653 Z M99.8319904,12.0997551 L103.456143,12.0997551 L103.456143,7.86778571 L99.8319904,7.86778571 L99.8319904,12.0997551 Z" id="Fill-5"></path>
                        <path d="M105.981615,14.2910612 C105.981615,10.6291939 108.09041,8.49829592 113.022516,8.49829592 C114.864115,8.49829592 116.765506,8.73804082 118.399327,9.15863265 L117.983771,12.4301122 C116.379472,12.1299592 114.507604,11.9196633 113.141353,11.9196633 C110.556463,11.9196633 109.724604,12.8201224 109.724604,14.9510204 L109.724604,22.6349388 C109.724604,24.7662143 110.556463,25.6666735 113.141353,25.6666735 C114.507604,25.6666735 116.379472,25.4563776 117.983771,25.1562245 L118.399327,28.4277041 C116.765506,28.8482959 114.864115,29.0880408 113.022516,29.0880408 C108.09041,29.0880408 105.981615,26.9571429 105.981615,23.2952755 L105.981615,14.2910612" id="Fill-6"></path>
                        <path d="M125.827008,16.9924388 C123.895721,16.9924388 123.153177,17.8626939 123.153177,19.5137245 L123.153177,23.4455408 C123.153177,25.0961939 123.895721,25.9668265 125.827008,25.9668265 C127.757922,25.9668265 128.500466,25.0961939 128.500466,23.4455408 L128.500466,19.5137245 C128.500466,17.8626939 127.757922,16.9924388 125.827008,16.9924388 Z M125.827008,29.0880408 C120.865753,29.0880408 119.529025,26.3270102 119.529025,23.3254796 L119.529025,19.6334082 C119.529025,16.6322551 120.865753,13.8708469 125.827008,13.8708469 C130.788637,13.8708469 132.125366,16.6322551 132.125366,19.6334082 L132.125366,23.3254796 C132.125366,26.3270102 130.788637,29.0880408 125.827008,29.0880408 Z" id="Fill-7"></path>
                        <path d="M141.750783,17.2325612 C140.354636,17.8626939 139.225685,18.5230306 137.918479,19.3634592 L137.918479,28.7878878 L134.293953,28.7878878 L134.293953,14.171 L137.354191,14.171 L137.591865,15.791449 C138.393827,15.251551 140.116589,14.2310306 141.394273,13.8708469 L141.750783,17.2325612" id="Fill-8"></path>
                        <g id="Group-14">
                            <path d="M146.848066,25.5764388 C147.798761,25.7867347 149.017026,25.9668265 150.056663,25.9668265 C151.363869,25.9668265 151.869113,25.3366939 151.869113,24.0160204 L151.869113,18.8533878 C151.869113,17.6527755 151.423287,16.9924388 150.086559,16.9924388 C148.897816,16.9924388 147.620879,17.5927449 146.848066,18.3127347 L146.848066,25.5764388 Z M155.493265,23.9254082 C155.493265,27.1670612 154.067596,29.0880408 150.710266,29.0880408 C149.432956,29.0880408 147.97739,28.9083265 146.848066,28.6682041 L146.848066,34.7007143 L143.223913,35.2111633 L143.223913,14.171 L146.105522,14.171 L146.462032,15.4014388 C147.739343,14.4707755 149.224804,13.8708469 151.037254,13.8708469 C153.948385,13.8708469 155.493265,15.6117347 155.493265,18.9432449 L155.493265,23.9254082 Z" id="Fill-9"></path>
                            <polyline id="Fill-11" points="14.5552818 0.348102041 0.274296563 8.67159184 0.274296563 28.664051 5.63989608 31.7935714 5.63989608 11.8014898 14.5552818 6.60110204 14.5552818 0.348102041"></polyline>
                            <polyline id="Fill-12" points="20.2564648 0.348102041 20.2564648 16.2705612 14.5552818 16.2705612 14.5552818 10.3279082 9.19005596 13.4574286 9.19005596 33.8568878 14.5552818 36.9943367 14.5552818 21.1171837 20.2564648 21.1171837 20.2564648 27.0205714 25.6220643 23.8906735 25.6220643 3.478 20.2564648 0.348102041"></polyline>
                            <polyline id="Fill-13" points="20.2564648 37 34.53745 28.6765102 34.53745 8.68405102 29.1722242 5.55453061 29.1722242 25.5466122 20.2564648 30.7473776 20.2564648 37"></polyline>
                        </g>
                    </g>
                </g>
            </g>
        </g>
    </g>
</svg>