<?xml version="1.0" encoding="UTF-8"?>
<svg width="133px" height="30px" viewBox="0 0 133 30" version="1.1" xmlns="http://www.w3.org/2000/svg" xmlns:xlink="http://www.w3.org/1999/xlink">
    <!-- Generator: Sketch 50.1 (55044) - http://www.bohemiancoding.com/sketch -->
    <title>WeWork_Logo__1_</title>
    <desc>Created with Sketch.</desc>
    <defs>
        <polygon id="path-1" points="19.1282973 0.246857143 38.0911398 0.246857143 38.0911398 29.52 0.165454693 29.52 0.165454693 0.246857143"></polygon>
    </defs>
    <g id="Page-1" stroke="none" stroke-width="1" fill="none" fill-rule="evenodd">
        <g id="Price-to-Performance-V3" transform="translate(-994.000000, -995.000000)">
            <g id="companies" transform="translate(250.000000, 960.000000)">
                <g id="Group-5" transform="translate(0.000000, 34.000000)">
                    <g id="WeWork_Logo__1_" transform="translate(744.000000, 1.000000)">
                        <path d="M13.1951681,14.8434286 C12.5818413,14.7214286 11.8687956,14.6805714 11.0803944,14.6805714 C9.65373662,14.6805714 8.8157593,14.8528571 8.8157593,15.2951429 C8.8157593,15.5414286 8.94749002,16.0325714 9.21860032,16.63 C9.8353267,18.0542857 11.6118499,21.7102857 12.3713554,23.0071429 C12.9849656,21.91 14.493778,18.9842857 14.7076633,18.1671429 C14.8467597,17.6368571 14.8467597,17.2808571 14.8467597,16.9514286 C14.8467597,16.3022857 14.0835714,15.0002857 13.1951681,14.8434286 Z M14.3917929,13.1688571 C17.1898666,13.1688571 19.3941605,13.1265714 22.2333115,13.0377143 C22.7200069,13.0831429 22.6789296,14.2974286 22.3701415,14.4642857 L21.7123378,14.5794286 C20.6851215,14.7862857 20.0737777,14.9894286 20.0737777,15.1982857 C20.0737777,15.5274286 20.1556491,15.7625714 20.4210935,16.454 C21.2310249,18.4085714 22.4613615,21.0394286 23.4458007,22.9911429 C24.5084284,20.6422857 25.2095758,18.6531429 25.9138393,16.7711429 C26.1849496,16.0491429 26.3146973,15.4745714 26.3146973,15.1871429 C26.3146973,14.9837143 25.9585995,14.7825714 25.1971109,14.6262857 L24.4514868,14.4642857 C24.1803765,14.1654286 24.1803765,13.2085714 24.6262779,13.0377143 C26.0920299,13.1151429 27.1444592,13.1565714 28.2589293,13.1565714 C29.5445078,13.1537143 30.6966558,13.1097143 31.6666471,13.0274286 C32.0646721,13.1985714 32.156742,14.0828571 31.8060267,14.4534286 L31.1819347,14.5722857 C29.7229817,14.8565714 29.4161766,15.268 28.7048307,16.7711429 C26.6736281,20.9134286 24.6441252,25.3888571 22.7930962,29.694 C22.5219859,29.9391429 22.2080986,29.984 21.76588,29.984 C21.3236614,29.9871429 21.0168563,29.9391429 20.745746,29.7017143 C19.8148489,27.5091429 17.5020542,22.754 16.1700159,20.1642857 C15.028633,22.272 12.3801375,27.6834286 11.358587,29.7082857 C11.094559,29.9537143 10.7843544,29.9928571 10.3421358,30 C9.89311824,30 9.58971266,29.9537143 9.32200185,29.712 C7.18569796,25.128 5.00661699,20.4605714 2.84141733,16.238 C2.21562561,15.0594286 1.77170727,14.8922857 1.01531802,14.6922857 L0.209352682,14.4954286 C-0.0900868106,14.1654286 -0.0900868106,13.2828571 0.352131778,13.0637143 C2.167466,13.1448571 3.5867582,13.1805714 5.44713583,13.1805714 L14.3917929,13.1688571 Z" id="Fill-1" fill="#212221"></path>
                        <path d="M38.9461146,17.9748571 C39.556042,17.9748571 40.2730537,17.8922857 40.7600324,17.6082857 C40.979017,17.486 41.070237,17.0797143 41.070237,16.6691429 C41.0679707,15.3337143 40.2155455,14.4425714 38.7140986,14.4425714 C36.8596701,14.45 35.259921,16.076 35.259921,17.3671429 C35.259921,17.9391429 35.8752309,17.984 37.3018887,17.9748571 L38.9461146,17.9748571 Z M36.0216928,19.7665714 C35.0015588,19.7665714 34.9123219,19.8505714 34.9123219,20.4997143 C34.9123219,23.5451429 37.0452263,26.5077143 41.1679727,26.4982857 C42.4039751,26.4982857 44.0960773,26.2614286 45.2873196,24.3834286 C45.769199,24.3005714 46.4357848,24.63 46.4357848,25.3205714 C44.6312156,28.7771429 41.3498461,29.9537143 38.6894522,29.9568571 C32.7046285,29.9674286 29.476801,26.1134286 29.4646195,21.6834286 C29.4646195,16.5651429 33.4822646,12.5814286 39.0209037,12.574 C43.6343116,12.5668571 46.1114156,15.2894286 46.1150984,18.4177143 C46.1150984,19.1782857 45.9029128,19.752 44.5204485,19.7554286 L36.0216928,19.7665714 Z" id="Fill-3" fill="#212221"></path>
                        <path d="M59.4003533,14.7825714 C58.7836269,14.6637143 58.0753973,14.6225714 57.2784973,14.6262857 C55.853256,14.6262857 55.0135789,14.7862857 55.0135789,15.23 C55.0135789,15.4745714 55.1597575,15.9714286 55.427185,16.5682857 C56.0407952,17.9928571 57.8207179,21.646 58.5731411,22.9457143 C59.1935503,21.8505714 60.6983966,18.928 60.9071827,18.1117143 C61.0428795,17.5831429 61.0428795,17.2197143 61.0428795,16.8885714 C61.0428795,16.2468571 60.2904563,14.9354286 59.4003533,14.7825714 Z M60.5989612,13.1097143 C63.3842867,13.106 65.6081278,13.0637143 68.4404798,12.9785714 C68.9232091,13.0217143 68.880432,14.2305714 68.5625786,14.4085714 L67.9061913,14.5237143 C66.8852075,14.7325714 66.2679145,14.9322857 66.2679145,15.1365714 C66.2679145,15.4642857 66.3608342,15.6997143 66.6228792,16.3922857 C67.425445,18.3505714 68.6696629,20.9822857 69.6458866,22.934 C70.7068146,20.5742857 71.4127779,18.586 72.1167582,16.7071429 C72.3793698,15.9782857 72.5218656,15.4122857 72.5218656,15.1277143 C72.5218656,14.9174286 72.1584021,14.7214286 71.4056956,14.5617143 L70.6563887,14.3997143 C70.3855617,14.1117143 70.3855617,13.1448571 70.8297633,12.9737143 C72.2901328,13.056 73.3527606,13.092 74.4649644,13.088 C75.7460102,13.088 76.8978749,13.0488571 77.871549,12.968 C78.2746733,13.1365714 78.3622105,14.0254286 78.0112119,14.3885714 L77.3885364,14.5185714 C75.9281668,14.7954286 75.6207952,15.2037143 74.9111491,16.7071429 C72.8788133,20.8528571 70.8456276,25.3345714 68.9909159,29.6345714 C68.7268878,29.882 68.4149835,29.9231429 67.9673824,29.9231429 C67.5322461,29.9231429 67.2143926,29.882 66.9526309,29.6345714 C66.0268332,27.4442857 63.7086559,22.6925714 62.3786006,20.0957143 C61.2244696,22.2122857 58.5836229,27.622 57.5617892,29.6488571 C57.2960614,29.892 56.9912394,29.9391429 56.547321,29.9391429 C56.0977368,29.9391429 55.7946146,29.8942857 55.527187,29.6488571 C53.3962657,25.0648571 51.2041533,20.3945714 49.0395202,16.1711429 C48.4137285,14.9965714 47.9729264,14.8362857 47.2205032,14.6334286 L46.425303,14.4322857 C46.1114156,14.1117143 46.1043333,13.2108571 46.5536342,13.0108571 C48.3675519,13.088 49.7851444,13.1265714 51.650338,13.124 L60.5989612,13.1097143 Z" id="Fill-4" fill="#212221"></path>
                        <path d="M82.1552052,20.6422857 C82.1659703,24.8991429 83.6351218,28.0345714 86.1980633,28.0282857 C88.7159613,28.0217143 89.5644204,25.3865714 89.5097451,21.7302857 C89.464985,17.788 88.2221836,14.3742857 85.7020192,14.3742857 C83.7354071,14.3845714 82.1518057,16.2197143 82.1552052,20.6422857 Z M75.7780222,21.5411429 C75.7281628,15.734 80.7322302,12.5145714 85.9555654,12.5145714 C91.1803171,12.5108571 95.8903276,15.4211429 95.8914607,21.1474286 C95.9005261,27.0862857 91.1613366,29.892 85.7147673,29.9011429 C80.439873,29.9088571 75.8284481,27.1471429 75.7780222,21.5411429 Z" id="Fill-5" fill="#212221"></path>
                        <g id="Group-9" transform="translate(94.052897, 0.000000)">
                            <mask id="mask-2" fill="white">
                                <use xlink:href="#path-1"></use>
                            </mask>
                            <g id="Clip-7"></g>
                            <path d="M2.89609266,18.5537143 C2.89127669,16.9242857 2.89127669,16.436 2.04961659,15.9462857 L1.42184183,15.5882857 C1.11163725,15.3362857 1.11163725,14.6154286 1.42184183,14.3654286 C3.46352625,13.8308571 6.51684588,12.7345714 7.89336102,11.9228571 C8.24265988,11.9228571 8.51405348,12.046 8.68686151,12.29 C8.60244053,13.106 8.51405348,13.6654286 8.51405348,14.0348571 C8.51405348,14.3162857 8.60244053,14.4425714 8.95428902,14.5237143 C10.1528969,13.8257143 11.4277102,12.4891429 13.2931871,12.484 C14.4951945,12.484 15.734313,13.3362857 15.734313,14.8742857 C15.7413953,16.748 14.3204034,17.522 12.9059271,17.522 C12.2841015,17.522 11.7486799,17.2808571 11.1767136,16.792 C10.1528969,16.0185714 9.75543839,15.9782857 9.49452659,15.9782857 C8.86873488,15.982 8.64408444,16.8742857 8.64578419,18.4208571 L8.65314978,24.6817143 C8.66533133,27.5194286 8.84522166,27.8508571 10.3047413,27.9642857 L11.7223338,28.0828571 C12.0733324,28.3271429 12.0770152,29.2648571 11.6812564,29.504 C9.54438596,29.4282857 7.7825939,29.388 5.69983217,29.388 C3.87854882,29.3957143 1.93346693,29.4334286 0.467431564,29.52 C0.077338677,29.2802857 0.0685566294,28.3454286 0.421538283,28.0974286 L1.2663146,28.018 C2.72895046,27.8902857 2.90402483,27.5282857 2.89609266,24.6837143 L2.89609266,18.5537143" id="Fill-6" fill="#212221" mask="url(#mask-2)"></path>
                            <path d="M16.4567073,6.70685714 C16.4530245,5.07371429 16.4530245,4.63714286 15.5578222,4.15714286 L14.8051157,3.75028571 C14.4951945,3.50828571 14.4951945,2.77457143 14.8051157,2.52571429 C16.6280988,2.11542857 19.3168219,1.13685714 21.5840066,0.246857143 C21.8457683,0.246857143 22.1664547,0.316857143 22.3355799,0.525714286 C22.2554083,2.19057143 22.2097983,3.89114286 22.2097983,6.45885714 L22.2236796,19.2068571 C22.2236796,19.6605714 22.3590931,19.7822857 22.8494713,19.7822857 C23.5970785,19.7822857 24.5313751,19.5794286 25.4209115,18.6428571 L27.270524,16.6402857 C28.1121842,15.7108571 28.3354181,15.268 28.3354181,15.0197143 C28.3354181,14.8165714 27.8912165,14.6534286 27.4863924,14.6225714 L26.3855203,14.4568571 C25.9846623,14.0957143 26.0223401,13.1985714 26.4693747,13.034 L27.5308693,13.0274286 C29.6173138,13.0274286 33.2950087,12.8185714 35.9055431,12.4591429 C36.3505947,12.6551429 36.3979044,13.5454286 36.090816,13.8757143 L34.6749233,14.1548571 C33.834963,14.3274286 32.8947173,14.7325714 31.7040416,15.5882857 C30.0278037,16.7662857 29.3535691,17.3694286 28.7379759,17.95 C28.5150252,18.1911429 28.4702651,18.356 28.4702651,18.4788571 C28.4702651,18.6008571 28.5583688,18.8405714 28.7864188,19.1671429 C29.5804858,20.4625714 33.4904801,25.9837143 34.6038171,26.9191429 C35.2242262,27.4442857 36.0590873,27.6454286 37.2140682,27.8434286 L37.8741383,27.9711429 C38.2251369,28.2502857 38.137883,29.23 37.70303,29.388 C36.3316141,29.3114286 34.691071,29.27 32.1252966,29.27 C29.5031472,29.27 27.9053811,29.3202857 26.6639962,29.4031429 C26.2220609,29.2031429 26.1393397,28.3488571 26.4926046,27.9877143 L27.0742028,27.8562857 C27.5133052,27.7734286 27.7770499,27.6925714 27.7770499,27.5402857 C27.7770499,27.3665714 27.3739256,26.7254286 27.0226437,26.2357143 L23.8662058,21.8505714 C23.5613838,21.4034286 23.2050026,21.2394286 22.7554184,21.2394286 C22.4520128,21.2394286 22.2236796,21.448 22.2287789,22.2214286 L22.2313285,24.572 C22.2344447,27.4228571 22.4089525,27.7462857 23.9735734,27.8991429 L24.6741542,27.9877143 C25.0308186,28.2265714 25.0381842,29.1691429 24.6276943,29.4065714 C23.2137847,29.3291429 21.353407,29.2891429 19.3148388,29.2891429 C17.2876023,29.2917143 15.4581035,29.3368571 13.9101968,29.4194286 C13.5073557,29.1814286 13.5073557,28.2442857 13.8569379,28.002 L14.705397,27.9171429 C16.2994803,27.7591429 16.481637,27.4282857 16.4779542,24.5788571 L16.4567073,6.70685714" id="Fill-8" fill="#212221" mask="url(#mask-2)"></path>
                        </g>
                    </g>
                </g>
            </g>
        </g>
    </g>
</svg>