<?xml version="1.0" encoding="UTF-8"?>
<svg width="121px" height="34px" viewBox="0 0 121 34" version="1.1" xmlns="http://www.w3.org/2000/svg" xmlns:xlink="http://www.w3.org/1999/xlink">
    <!-- Generator: Sketch 50.1 (55044) - http://www.bohemiancoding.com/sketch -->
    <title>icons8-splunk</title>
    <desc>Created with Sketch.</desc>
    <defs></defs>
    <g id="Page-1" stroke="none" stroke-width="1" fill="none" fill-rule="evenodd">
        <g id="icons8-splunk">
            <polygon id="Shape" fill="#212121" fill-rule="nonzero" points="34.584359 0 34.7553191 25.7446809 38.6170213 25.7446809 38.6170213 0"></polygon>
            <path d="M82.3829787,0 L82.3829787,25.7547367 L87.0290904,25.7547367 C87.0290904,25.7547367 87.0693164,16.462516 87.1195984,16.4725744 C87.1698803,16.4725744 94.0485372,26.1067154 94.1088776,26.0765452 C94.1792713,26.0564335 98.2320479,24.5982393 98.2320479,24.5580133 C98.2320479,24.5278431 91.3232208,15.6982208 91.3232208,15.6881649 C91.3232208,15.6680531 97.115774,9.22182449 97.065492,9.17154255 C96.9045878,9.02069417 93.7669548,7.66306645 93.6764468,7.71334838 C93.6362207,7.74351857 87.0290904,14.9138138 87.0290904,14.9138138 L87.0290904,0 L82.3829787,0 Z" id="Shape" fill="#212121" fill-rule="nonzero"></path>
            <path d="M5.40034843,7.85413832 C3.73096806,8.20611702 2.16215157,9.272109 1.51853455,10.5090585 C0.925199468,11.6353883 0.93525534,13.1941489 1.5386463,14.340593 C1.95096538,15.1350559 3.14768885,16.2412739 5.00814623,17.5486197 C7.01944943,18.9766463 7.78374464,19.6906595 7.97481651,20.3644442 C8.2664574,21.3600399 7.8239707,22.2952952 6.85854517,22.7578963 C6.3758324,22.9891968 6.16464364,23.0193644 5.30984043,22.9791383 C4.19356651,22.9288564 3.4292713,22.6472739 2.29288564,21.8326968 C1.93085106,21.5812845 1.59898668,21.400266 1.55876062,21.440492 C1.51853455,21.4807181 1.15649998,22.0237712 0.75423934,22.6472739 L0.0301696766,23.7635479 L0.301696766,23.974734 C0.462601021,24.0853564 0.945313787,24.3769947 1.38780049,24.6284069 C4.44498134,26.3279601 8.97041223,26.0564335 11.2632979,24.0350744 C12.4901941,22.9590266 13.0634149,21.400266 12.8120026,19.8012793 C12.590758,18.302859 11.766125,17.3173218 9.17154255,15.4367526 C7.13006917,13.9584441 6.16464364,13.143867 5.94340157,12.7114362 C5.51097074,11.8666888 5.81266751,11.0521117 6.72780853,10.5794548 C7.19040955,10.3380984 7.381484,10.3179867 8.29662502,10.3582127 C9.19165687,10.3883803 9.46318087,10.4587766 10.2073643,10.8107553 L11.0722234,11.2331277 L11.7460106,10.1771941 C12.1181011,9.59391751 12.3896277,9.08103455 12.3594575,9.03075262 C12.2387793,8.84973404 10.8208112,8.25639896 9.93583777,8.02510102 C8.75922604,7.71334838 6.48645215,7.62284038 5.40034843,7.85413832 Z" id="Shape" fill="#212121" fill-rule="nonzero"></path>
            <path d="M25.825133,10.1269122 C27.8565505,11.0822819 28.9426542,14.0690665 28.5001675,17.4681676 C28.3493191,18.6749495 27.9168883,20.1331462 27.5146277,20.8069309 C27.112367,21.5008324 26.3279601,22.2550692 25.7044548,22.5467101 C24.5580133,23.0897606 22.8584601,22.8785744 21.7824149,22.0639973 C20.2940505,20.9276091 19.4794708,18.1419548 19.7912234,15.2456782 C20.0828617,12.590758 21.0382314,10.9113192 22.7076143,10.1369681 C23.5724734,9.73470745 24.9703298,9.73470745 25.825133,10.1269122 Z M23.974734,7.17029523 C22.7578963,7.44182181 21.7924707,7.98487496 20.7465931,8.98046811 L19.8012793,9.88555583 L19.8012793,7.72340426 L15.4468085,7.72340426 L15.4468085,33.4680851 L19.8012793,33.4680851 L19.8012793,22.9690824 L20.6359707,23.7836596 C22.1645612,25.2820824 23.9546223,25.8854734 26.0463776,25.5938325 C27.4140638,25.4027606 28.3794893,25.0507819 29.3951968,24.3669388 C32.2512473,22.4561995 33.8301197,18.6447819 33.3976889,14.6624016 C32.9853723,10.8811516 31.0444654,8.2664574 27.9168883,7.27086168 C27.112367,7.00939098 24.9200478,6.95910904 23.974734,7.17029523 Z" id="Shape" fill="#212121" fill-rule="nonzero"></path>
            <path d="M41.8552207,7.72340426 C41.8552207,7.72340426 41.9960106,21.3298697 42.0865186,21.7220745 C42.4384973,23.2204947 43.4441489,24.6485213 44.5704787,25.2619681 C45.6063005,25.825133 46.440992,25.9960931 47.99975,25.9960931 C50.222242,25.9860372 51.5698138,25.4530425 53.2190824,23.934508 L54.0638298,23.1702128 L54.0638298,25.7446809 L58.5490372,25.7446809 L58.4886968,7.72340426 L54.0638298,7.72340426 C54.0638298,7.72340426 54.1241702,18.9163059 54.0638298,19.3085106 C53.8023617,20.8773271 52.5855213,22.1645612 51.3485718,22.5768777 C50.6144442,22.8282925 49.3272101,23.0294228 48.552859,22.9087446 C47.7583936,22.778008 46.4208777,21.903093 46.3404255,20.5957447 L46.3404255,7.78374464 L41.8552207,7.72340426 Z" id="Shape" fill="#212121" fill-rule="nonzero"></path>
            <path d="M79.1447819,25.7446809 C79.1447819,25.7446809 79.0039894,12.1382154 78.9134814,11.7460106 C78.5615027,10.2475904 77.5558511,8.81956385 76.4295213,8.20611702 C75.3936995,7.64295213 74.5590106,7.471992 73.00025,7.471992 C70.7777606,7.48204787 69.4301862,8.01504257 67.7809176,9.53357713 L66.9361702,10.2978723 L66.9361702,7.72340426 L62.4509654,7.72340426 L62.5113032,25.7446809 L66.9361702,25.7446809 C66.9361702,25.7446809 66.8758324,14.5517792 66.9361702,14.1595745 C67.1976409,12.590758 68.4144787,11.3035239 69.6514308,10.8912074 C70.3855558,10.6397952 71.3509814,10.4487207 72.447141,10.559343 C73.5433006,10.6800212 74.7400266,11.6756144 74.6595745,12.8723404 L74.6595745,25.684343 L79.1447819,25.7446809 Z" id="Shape" fill="#212121" fill-rule="nonzero"></path>
            <polygon id="Shape" fill="#77B539" points="102.978723 6.43617021 102.978723 10.2978723 118.425532 15.4468085 102.978723 22.1444494 102.978723 25.7446809 121 18.0212766 121 12.8723404"></polygon>
        </g>
    </g>
</svg>