<?xml version="1.0" encoding="UTF-8"?>
<svg width="143px" height="37px" viewBox="0 0 143 37" version="1.1" xmlns="http://www.w3.org/2000/svg" xmlns:xlink="http://www.w3.org/1999/xlink">
    <!-- Generator: Sketch 50.1 (55044) - http://www.bohemiancoding.com/sketch -->
    <title>horizontal</title>
    <desc>Created with Sketch.</desc>
    <defs>
        <polygon id="path-1" points="0.0293835616 37 142.635154 37 142.635154 0.493333333 0.0293835616 0.493333333"></polygon>
    </defs>
    <g id="Page-1" stroke="none" stroke-width="1" fill="none" fill-rule="evenodd">
        <g id="Price-to-Performance-V3" transform="translate(-250.000000, -996.000000)">
            <g id="companies" transform="translate(250.000000, 960.000000)">
                <g id="Group-5" transform="translate(0.000000, 34.000000)">
                    <g id="horizontal" transform="translate(0.000000, 2.000000)">
                        <mask id="mask-2" fill="white">
                            <use xlink:href="#path-1"></use>
                        </mask>
                        <g id="Clip-2"></g>
                        <path d="M65.9024315,26.95228 C65.6614863,27.5186267 65.3323904,28.0159067 64.9161233,28.4436267 C64.4993664,28.8723333 64.0106199,29.2112533 63.4493938,29.4603867 C62.8881678,29.7105067 62.2877637,29.83532 61.6472021,29.83532 C60.9983151,29.83532 60.3935034,29.7105067 59.8322774,29.4603867 C59.2710514,29.2112533 58.7842637,28.8743067 58.3719144,28.4505333 C57.9600548,28.02676 57.6334075,27.52948 57.3919726,26.9591867 C57.1510274,26.3879067 57.0305548,25.7816 57.0305548,25.13928 C57.0305548,24.49696 57.1510274,23.8906533 57.3919726,23.3198667 C57.6334075,22.74908 57.9600548,22.2518 58.3719144,21.82852 C58.7842637,21.4047467 59.2710514,21.0678 59.8322774,20.8181733 C60.3935034,20.5685467 60.9983151,20.4437333 61.6472021,20.4437333 C62.2877637,20.4437333 62.8881678,20.5685467 63.4493938,20.8181733 C64.0106199,21.0678 64.4993664,21.40672 64.9161233,21.8349333 C65.3323904,22.2631467 65.6614863,22.7604267 65.9024315,23.3267733 C66.1438664,23.89312 66.264339,24.49696 66.264339,25.13928 C66.264339,25.7816 66.1438664,26.3859333 65.9024315,26.95228 Z M67.6321438,11.2258 C67.2374247,11.2258 66.9107774,11.35752 66.6522021,11.6204667 C66.3936267,11.8839067 66.264339,12.21592 66.264339,12.617 L66.264339,19.29328 C64.9313048,18.1961067 63.3920959,17.64752 61.6472021,17.64752 C59.6128801,17.64752 57.8768014,18.3791333 56.438476,19.8413733 C55.0006404,21.3041067 54.2812329,23.07024 54.2812329,25.13928 C54.2812329,27.20832 55.0006404,28.9744533 56.438476,30.4371867 C57.8768014,31.89992 59.6128801,32.6315333 61.6472021,32.6315333 C63.6643836,32.6315333 65.4004623,31.89992 66.8559281,30.4371867 C68.2942534,28.9922133 69.0131712,27.2265733 69.0131712,25.13928 L69.0131712,12.617 C69.0131712,12.21592 68.879476,11.8839067 68.6120856,11.6204667 C68.3446952,11.35752 68.0180479,11.2258 67.6321438,11.2258 Z M90.9406541,21.8147067 C91.3618185,21.3909333 91.8530137,21.0569467 92.4142397,20.81176 C92.9754658,20.5665733 93.5758699,20.4437333 94.2159418,20.4437333 C94.7947979,20.4437333 95.3295788,20.5419067 95.820774,20.73776 C96.3119692,20.9341067 96.7811267,21.2241867 97.2282466,21.6075067 C97.4912295,21.8216133 97.7894726,21.9286667 98.1224863,21.9286667 C98.5172055,21.9286667 98.8438527,21.7949733 99.1024281,21.5270933 C99.3614932,21.2597067 99.4902911,20.9252267 99.4902911,20.5241467 C99.4902911,20.1048133 99.3325993,19.7525733 99.0172158,19.4669333 C97.6665514,18.2538267 96.0661267,17.64752 94.2159418,17.64752 C92.1821096,17.64752 90.4455411,18.3791333 89.0072158,19.8413733 C87.5693801,21.3041067 86.8504623,23.07024 86.8504623,25.13928 C86.8504623,27.20832 87.5693801,28.9744533 89.0072158,30.4371867 C90.4455411,31.89992 92.1821096,32.6315333 94.2159418,32.6315333 C96.0578014,32.6315333 97.6577363,32.0247333 99.0172158,30.81212 C99.3061541,30.5176 99.451113,30.17424 99.451113,29.7815467 C99.451113,29.3804667 99.3218253,29.0484533 99.0627603,28.7850133 C98.8041849,28.5220667 98.4775377,28.3903467 98.0828185,28.3903467 C97.7502945,28.3992267 97.4608664,28.4974 97.215024,28.6848667 C96.7762295,29.0681867 96.3119692,29.3558 95.820774,29.5477067 C95.3295788,29.73912 94.7947979,29.83532 94.2159418,29.83532 C93.5758699,29.83532 92.9754658,29.71248 92.4142397,29.4672933 C91.8530137,29.2221067 91.3618185,28.8876267 90.9406541,28.4638533 C90.5199795,28.0405733 90.1889247,27.5432933 89.9479795,26.9720133 C89.7065445,26.40172 89.5860719,25.79048 89.5860719,25.13928 C89.5860719,24.4885733 89.7065445,23.8773333 89.9479795,23.3065467 C90.1889247,22.73576 90.5199795,22.23848 90.9406541,21.8147067 Z M82.200024,26.95228 C81.9590788,27.5186267 81.6299829,28.0159067 81.213226,28.4436267 C80.7964692,28.8723333 80.3077226,29.2112533 79.7469863,29.4603867 C79.1852705,29.7105067 78.5848664,29.83532 77.9447945,29.83532 C77.2959075,29.83532 76.6910959,29.7105067 76.1298699,29.4603867 C75.5686438,29.2112533 75.0818562,28.8743067 74.6695068,28.4505333 C74.2576473,28.02676 73.931,27.52948 73.6895651,26.9591867 C73.4486199,26.3879067 73.3281473,25.7816 73.3281473,25.13928 C73.3281473,24.49696 73.4486199,23.8906533 73.6895651,23.3198667 C73.931,22.74908 74.2576473,22.2518 74.6695068,21.82852 C75.0818562,21.4047467 75.5686438,21.0678 76.1298699,20.8181733 C76.6910959,20.5685467 77.2959075,20.4437333 77.9447945,20.4437333 C78.5848664,20.4437333 79.1852705,20.5685467 79.7469863,20.8181733 C80.3077226,21.0678 80.7964692,21.40672 81.213226,21.8349333 C81.6299829,22.2631467 81.9590788,22.7604267 82.200024,23.3267733 C82.4409692,23.89312 82.5614418,24.49696 82.5614418,25.13928 C82.5614418,25.7816 82.4409692,26.3859333 82.200024,26.95228 Z M83.1535205,19.8413733 C81.6975651,18.3791333 79.9614863,17.64752 77.9447945,17.64752 C75.9104726,17.64752 74.1743938,18.3791333 72.7360685,19.8413733 C71.2977432,21.3041067 70.5788253,23.07024 70.5788253,25.13928 C70.5788253,27.20832 71.2977432,28.9744533 72.7360685,30.4371867 C74.1743938,31.89992 75.9104726,32.6315333 77.9447945,32.6315333 C79.9614863,32.6315333 81.6975651,31.89992 83.1535205,30.4371867 C84.5918459,28.9922133 85.3107637,27.2265733 85.3107637,25.13928 C85.3019486,24.10476 85.1202603,23.1462133 84.7647192,22.2631467 C84.4096678,21.38008 83.8729281,20.5729867 83.1535205,19.8413733 Z M142.26688,18.5838667 C142.021038,18.34312 141.712021,18.15368 141.339339,18.0155467 C140.967147,17.87692 140.559205,17.7812133 140.116003,17.7279333 C139.673291,17.67416 139.258983,17.64752 138.873079,17.64752 C137.996469,17.64752 137.17226,17.7900933 136.400942,18.0757333 C135.628644,18.36088 134.914134,18.7713333 134.256432,19.3066 L134.256432,19.03872 C134.256432,18.6554 134.122736,18.3278267 133.855346,18.0555067 C133.587466,17.78368 133.265716,17.64752 132.888627,17.64752 C132.502723,17.64752 132.176075,17.78368 131.908685,18.0555067 C131.641295,18.3278267 131.50711,18.6554 131.50711,19.03872 L131.50711,31.23984 C131.50711,31.6236533 131.641295,31.9512267 131.908685,32.2230533 C132.176075,32.4953733 132.502723,32.6315333 132.888627,32.6315333 C133.265716,32.6315333 133.587466,32.4953733 133.855346,32.2230533 C134.122736,31.9512267 134.256432,31.6236533 134.256432,31.23984 L134.256432,25.13928 C134.256432,24.4885733 134.377394,23.8773333 134.618339,23.3065467 C134.859284,22.73576 135.18838,22.23848 135.605137,21.8147067 C136.020914,21.3909333 136.510151,21.0569467 137.071377,20.81176 C137.632603,20.5665733 138.233497,20.4437333 138.873079,20.4437333 C139.522455,20.4437333 140.12286,20.5552267 140.675271,20.7782133 C140.894178,20.8763867 141.08762,20.9252267 141.254127,20.9252267 C141.447079,20.9252267 141.626318,20.8897067 141.793315,20.8181733 C141.959822,20.74664 142.104781,20.6464933 142.227212,20.51724 C142.350134,20.3879867 142.448568,20.2385067 142.523007,20.0688 C142.597935,19.8995867 142.635154,19.71656 142.635154,19.5207067 C142.635154,19.1368933 142.512233,18.8246133 142.26688,18.5838667 Z M118.195866,23.74808 C118.335928,23.2577067 118.550918,22.8092667 118.840346,22.4037467 C119.129774,21.9977333 119.471603,21.6499333 119.866322,21.3598533 C120.260551,21.0702667 120.694938,20.8448133 121.168503,20.68448 C121.642068,20.5241467 122.128366,20.4437333 122.628377,20.4437333 C123.128387,20.4437333 123.612726,20.5241467 124.081884,20.68448 C124.551041,20.8448133 124.980531,21.0702667 125.370842,21.3598533 C125.761154,21.6499333 126.102983,21.9977333 126.396818,22.4037467 C126.690164,22.8092667 126.91201,23.2577067 127.060887,23.74808 L118.195866,23.74808 Z M127.837103,19.8413733 C126.381637,18.3791333 124.645558,17.64752 122.628377,17.64752 C120.594055,17.64752 118.857486,18.3791333 117.419651,19.8413733 C115.981325,21.3041067 115.262408,23.07024 115.262408,25.13928 C115.262408,27.20832 115.981325,28.9744533 117.419651,30.4371867 C118.857486,31.89992 120.594055,32.6315333 122.628377,32.6315333 C124.478562,32.6315333 126.083394,32.0247333 127.442873,30.81212 C127.705856,30.53536 127.837103,30.20088 127.837103,29.80868 C127.837103,29.4071067 127.707815,29.0750933 127.44875,28.8121467 C127.190664,28.5487067 126.864017,28.4169867 126.469298,28.4169867 C126.126979,28.4258667 125.824818,28.5422933 125.561836,28.7647867 C125.149486,29.1214667 124.702366,29.3893467 124.219497,29.5679333 C123.737606,29.7460267 123.207233,29.83532 122.628377,29.83532 C122.119551,29.83532 121.630805,29.7549067 121.161647,29.5945733 C120.69249,29.4337467 120.263,29.2087867 119.872688,28.9187067 C119.482866,28.62912 119.142507,28.28132 118.853079,27.8753067 C118.56414,27.4692933 118.344743,27.0213467 118.195866,26.53048 L128.612829,26.53048 C128.998733,26.53048 129.32538,26.3992533 129.59326,26.1363067 C129.860651,25.8728667 129.993856,25.5408533 129.993856,25.13928 C129.993856,24.10476 129.814127,23.1437467 129.455158,22.25624 C129.095699,21.3692267 128.556021,20.5641067 127.837103,19.8413733 Z M113.775599,19.03872 C113.775599,18.8512533 113.73838,18.67316 113.663942,18.5034533 C113.589014,18.33424 113.490579,18.18476 113.367658,18.0555067 C113.244736,17.9262533 113.100267,17.8256133 112.93425,17.7545733 C112.767253,17.68304 112.587524,17.64752 112.394572,17.64752 C112.122774,17.64752 111.876932,17.7190533 111.658024,17.8616267 L103.792534,23.0658 L103.792534,12.6308133 C103.792534,12.23812 103.658349,11.9061067 103.390959,11.6337867 C103.123568,11.36196 102.801329,11.2258 102.42424,11.2258 C102.038336,11.2258 101.711688,11.36196 101.444788,11.6337867 C101.176908,11.9061067 101.043212,12.23812 101.043212,12.6308133 L101.043212,31.22652 C101.043212,31.60984 101.176908,31.93988 101.444788,32.21664 C101.711688,32.4929067 102.038336,32.6315333 102.42424,32.6315333 C102.801329,32.6315333 103.123568,32.4929067 103.390959,32.21664 C103.658349,31.93988 103.792534,31.60984 103.792534,31.22652 L103.792534,26.3967867 L105.396877,25.3267467 L111.473887,32.26992 C111.71924,32.5106667 112.026298,32.6315333 112.394572,32.6315333 C112.587524,32.6315333 112.767253,32.59552 112.93425,32.52448 C113.100267,32.4529467 113.244736,32.3528 113.367658,32.2230533 C113.490579,32.0938 113.589014,31.9448133 113.663942,31.7751067 C113.73838,31.6058933 113.775599,31.4273067 113.775599,31.23984 C113.775599,30.87428 113.64876,30.54868 113.394103,30.2635333 L107.738257,23.78804 L113.249634,20.1492133 C113.600277,19.9084667 113.775599,19.5384667 113.775599,19.03872 Z M29.5084418,17.2666667 L34.8954281,17.2666667 L34.8954281,12.3333333 L29.5084418,12.3333333 L29.5084418,17.2666667 Z M23.1420034,17.2666667 L28.5289897,17.2666667 L28.5289897,12.3333333 L23.1420034,12.3333333 L23.1420034,17.2666667 Z M16.7755651,17.2666667 L22.1625514,17.2666667 L22.1625514,12.3333333 L16.7755651,12.3333333 L16.7755651,17.2666667 Z M10.4091267,17.2666667 L15.796113,17.2666667 L15.796113,12.3333333 L10.4091267,12.3333333 L10.4091267,17.2666667 Z M4.04268836,17.2666667 L9.42967466,17.2666667 L9.42967466,12.3333333 L4.04268836,12.3333333 L4.04268836,17.2666667 Z M10.4091267,11.3466667 L15.796113,11.3466667 L15.796113,6.41333333 L10.4091267,6.41333333 L10.4091267,11.3466667 Z M16.7755651,11.3466667 L22.1625514,11.3466667 L22.1625514,6.41333333 L16.7755651,6.41333333 L16.7755651,11.3466667 Z M23.1420034,11.3466667 L28.5289897,11.3466667 L28.5289897,6.41333333 L23.1420034,6.41333333 L23.1420034,11.3466667 Z M23.1420034,5.42666667 L28.5289897,5.42666667 L28.5289897,0.493333333 L23.1420034,0.493333333 L23.1420034,5.42666667 Z M45.1243356,13.7023333 C44.8569452,11.7285067 43.7643664,10.01664 41.7785274,8.46954667 L40.6364863,7.70241333 L39.8744726,8.85385333 C38.8989384,10.3358267 38.4111712,12.38908 38.5708219,14.3579733 C38.6428116,15.0506133 38.8690651,16.2898667 39.5767192,17.3786533 C38.8690651,17.7619733 37.4787329,18.2903333 35.6300171,18.2533333 L0.200787671,18.2533333 L0.131736301,18.66428 C-0.201277397,20.64304 -0.193931507,26.8176 3.78558219,31.56396 C6.81061986,35.1712133 11.3459726,37 17.2652911,37 C30.0975822,37 39.5909212,31.0499067 44.0371438,20.23308 C45.7830171,20.2686 49.5495,20.2429467 51.4834281,16.5217333 C51.5333801,16.43688 51.6489555,16.2129067 51.9868664,15.5079333 L52.1724726,15.12116 L51.0847911,14.39004 C49.9074897,13.5972533 47.2056712,13.30668 45.1243356,13.7023333 Z" id="Fill-1" fill="#066DA5" mask="url(#mask-2)"></path>
                    </g>
                </g>
            </g>
        </g>
    </g>
</svg>